<mxfile host="app.diagrams.net" modified="2024-03-04T03:47:49.278Z" agent="Mozilla/5.0 (Macintosh; Intel Mac OS X 10_15_7) AppleWebKit/537.36 (KHTML, like Gecko) Chrome/121.0.0.0 Safari/537.36" etag="h1vSb17m2IM6ZWICzD72" version="24.0.1" type="device">
  <diagram name="Page-1" id="Zsb-d6y0ri3_kKdMzWYg">
    <mxGraphModel dx="2175" dy="730" grid="1" gridSize="10" guides="1" tooltips="1" connect="1" arrows="1" fold="1" page="1" pageScale="1" pageWidth="1100" pageHeight="850" math="0" shadow="0">
      <root>
        <mxCell id="0" />
        <mxCell id="1" parent="0" />
        <mxCell id="bpZyM-wdqb_Q3J08ysqU-84" value="Cloud Native App Architecture" style="fillColor=none;strokeColor=#5A6C86;dashed=1;verticalAlign=top;fontStyle=0;fontColor=#5A6C86;whiteSpace=wrap;html=1;" parent="1" vertex="1">
          <mxGeometry x="-1040" y="40" width="1380" height="680" as="geometry" />
        </mxCell>
        <mxCell id="bpZyM-wdqb_Q3J08ysqU-8" style="edgeStyle=orthogonalEdgeStyle;rounded=0;orthogonalLoop=1;jettySize=auto;html=1;" parent="1" source="bpZyM-wdqb_Q3J08ysqU-1" target="bpZyM-wdqb_Q3J08ysqU-6" edge="1">
          <mxGeometry relative="1" as="geometry" />
        </mxCell>
        <mxCell id="bpZyM-wdqb_Q3J08ysqU-1" value="users" style="sketch=0;outlineConnect=0;gradientColor=none;fontColor=#545B64;strokeColor=none;fillColor=#879196;dashed=0;verticalLabelPosition=bottom;verticalAlign=top;align=center;html=1;fontSize=12;fontStyle=0;aspect=fixed;shape=mxgraph.aws4.illustration_users;pointerEvents=1" parent="1" vertex="1">
          <mxGeometry x="-1000.1" y="171" width="100" height="100" as="geometry" />
        </mxCell>
        <mxCell id="bpZyM-wdqb_Q3J08ysqU-2" value="Kubernetes Cluster" style="fillColor=none;strokeColor=#5A6C86;dashed=1;verticalAlign=top;fontStyle=0;fontColor=#5A6C86;whiteSpace=wrap;html=1;" parent="1" vertex="1">
          <mxGeometry x="-700" y="80" width="1000" height="600" as="geometry" />
        </mxCell>
        <mxCell id="bpZyM-wdqb_Q3J08ysqU-6" value="internet" style="sketch=0;outlineConnect=0;fontColor=#232F3E;gradientColor=none;fillColor=#232F3D;strokeColor=none;dashed=0;verticalLabelPosition=bottom;verticalAlign=top;align=center;html=1;fontSize=12;fontStyle=0;aspect=fixed;pointerEvents=1;shape=mxgraph.aws4.internet_alt1;" parent="1" vertex="1">
          <mxGeometry x="-820" y="197" width="78" height="48" as="geometry" />
        </mxCell>
        <mxCell id="bpZyM-wdqb_Q3J08ysqU-9" value="namespace: development" style="fillColor=none;strokeColor=#5A6C86;dashed=1;verticalAlign=top;fontStyle=0;fontColor=#5A6C86;whiteSpace=wrap;html=1;" parent="1" vertex="1">
          <mxGeometry x="-660" y="120" width="420" height="200" as="geometry" />
        </mxCell>
        <mxCell id="bpZyM-wdqb_Q3J08ysqU-12" value="" style="group" parent="1" vertex="1" connectable="0">
          <mxGeometry x="-650" y="190" width="100" height="78" as="geometry" />
        </mxCell>
        <mxCell id="bpZyM-wdqb_Q3J08ysqU-10" value="" style="aspect=fixed;sketch=0;html=1;dashed=0;whitespace=wrap;fillColor=#2875E2;strokeColor=#ffffff;points=[[0.005,0.63,0],[0.1,0.2,0],[0.9,0.2,0],[0.5,0,0],[0.995,0.63,0],[0.72,0.99,0],[0.5,1,0],[0.28,0.99,0]];shape=mxgraph.kubernetes.icon2;prIcon=ing" parent="bpZyM-wdqb_Q3J08ysqU-12" vertex="1">
          <mxGeometry x="25" width="50" height="48" as="geometry" />
        </mxCell>
        <mxCell id="bpZyM-wdqb_Q3J08ysqU-11" value="NGINX Ingress" style="text;html=1;align=center;verticalAlign=middle;resizable=0;points=[];autosize=1;strokeColor=none;fillColor=none;" parent="bpZyM-wdqb_Q3J08ysqU-12" vertex="1">
          <mxGeometry y="48" width="100" height="30" as="geometry" />
        </mxCell>
        <mxCell id="bpZyM-wdqb_Q3J08ysqU-13" style="edgeStyle=orthogonalEdgeStyle;rounded=0;orthogonalLoop=1;jettySize=auto;html=1;entryX=0.005;entryY=0.63;entryDx=0;entryDy=0;entryPerimeter=0;" parent="1" source="bpZyM-wdqb_Q3J08ysqU-6" target="bpZyM-wdqb_Q3J08ysqU-10" edge="1">
          <mxGeometry relative="1" as="geometry" />
        </mxCell>
        <mxCell id="bpZyM-wdqb_Q3J08ysqU-16" value="" style="group" parent="1" vertex="1" connectable="0">
          <mxGeometry x="-540" y="190" width="110" height="78" as="geometry" />
        </mxCell>
        <mxCell id="bpZyM-wdqb_Q3J08ysqU-14" value="" style="aspect=fixed;sketch=0;html=1;dashed=0;whitespace=wrap;fillColor=#2875E2;strokeColor=#ffffff;points=[[0.005,0.63,0],[0.1,0.2,0],[0.9,0.2,0],[0.5,0,0],[0.995,0.63,0],[0.72,0.99,0],[0.5,1,0],[0.28,0.99,0]];shape=mxgraph.kubernetes.icon2;prIcon=svc" parent="bpZyM-wdqb_Q3J08ysqU-16" vertex="1">
          <mxGeometry x="30" width="50" height="48" as="geometry" />
        </mxCell>
        <mxCell id="bpZyM-wdqb_Q3J08ysqU-15" value="svc/rest-service" style="text;html=1;align=center;verticalAlign=middle;resizable=0;points=[];autosize=1;strokeColor=none;fillColor=none;" parent="bpZyM-wdqb_Q3J08ysqU-16" vertex="1">
          <mxGeometry y="48" width="110" height="30" as="geometry" />
        </mxCell>
        <mxCell id="bpZyM-wdqb_Q3J08ysqU-21" value="" style="group" parent="1" vertex="1" connectable="0">
          <mxGeometry x="-430" y="190" width="180" height="78" as="geometry" />
        </mxCell>
        <mxCell id="bpZyM-wdqb_Q3J08ysqU-19" value="" style="aspect=fixed;sketch=0;html=1;dashed=0;whitespace=wrap;fillColor=#2875E2;strokeColor=#ffffff;points=[[0.005,0.63,0],[0.1,0.2,0],[0.9,0.2,0],[0.5,0,0],[0.995,0.63,0],[0.72,0.99,0],[0.5,1,0],[0.28,0.99,0]];shape=mxgraph.kubernetes.icon2;prIcon=ds" parent="bpZyM-wdqb_Q3J08ysqU-21" vertex="1">
          <mxGeometry x="65" width="50" height="48" as="geometry" />
        </mxCell>
        <mxCell id="bpZyM-wdqb_Q3J08ysqU-20" value="deployment.apps/rest-service" style="text;html=1;align=center;verticalAlign=middle;resizable=0;points=[];autosize=1;strokeColor=none;fillColor=none;" parent="bpZyM-wdqb_Q3J08ysqU-21" vertex="1">
          <mxGeometry y="48" width="180" height="30" as="geometry" />
        </mxCell>
        <mxCell id="bpZyM-wdqb_Q3J08ysqU-23" value="namespace: default" style="fillColor=none;strokeColor=#5A6C86;dashed=1;verticalAlign=top;fontStyle=0;fontColor=#5A6C86;whiteSpace=wrap;html=1;" parent="1" vertex="1">
          <mxGeometry x="-660" y="360" width="420" height="200" as="geometry" />
        </mxCell>
        <mxCell id="bpZyM-wdqb_Q3J08ysqU-24" value="" style="group" parent="1" vertex="1" connectable="0">
          <mxGeometry x="-640" y="420" width="180" height="78" as="geometry" />
        </mxCell>
        <mxCell id="bpZyM-wdqb_Q3J08ysqU-25" value="" style="aspect=fixed;sketch=0;html=1;dashed=0;whitespace=wrap;fillColor=#2875E2;strokeColor=#ffffff;points=[[0.005,0.63,0],[0.1,0.2,0],[0.9,0.2,0],[0.5,0,0],[0.995,0.63,0],[0.72,0.99,0],[0.5,1,0],[0.28,0.99,0]];shape=mxgraph.kubernetes.icon2;prIcon=ds" parent="bpZyM-wdqb_Q3J08ysqU-24" vertex="1">
          <mxGeometry x="65" width="50" height="48" as="geometry" />
        </mxCell>
        <mxCell id="bpZyM-wdqb_Q3J08ysqU-26" value="deployment.apps/log-receiver" style="text;html=1;align=center;verticalAlign=middle;resizable=0;points=[];autosize=1;strokeColor=none;fillColor=none;" parent="bpZyM-wdqb_Q3J08ysqU-24" vertex="1">
          <mxGeometry y="48" width="180" height="30" as="geometry" />
        </mxCell>
        <mxCell id="bpZyM-wdqb_Q3J08ysqU-27" style="edgeStyle=orthogonalEdgeStyle;rounded=0;orthogonalLoop=1;jettySize=auto;html=1;exitX=0.995;exitY=0.63;exitDx=0;exitDy=0;exitPerimeter=0;entryX=0.005;entryY=0.63;entryDx=0;entryDy=0;entryPerimeter=0;" parent="1" source="bpZyM-wdqb_Q3J08ysqU-10" target="bpZyM-wdqb_Q3J08ysqU-14" edge="1">
          <mxGeometry relative="1" as="geometry" />
        </mxCell>
        <mxCell id="bpZyM-wdqb_Q3J08ysqU-28" style="edgeStyle=orthogonalEdgeStyle;rounded=0;orthogonalLoop=1;jettySize=auto;html=1;exitX=0.995;exitY=0.63;exitDx=0;exitDy=0;exitPerimeter=0;entryX=0.005;entryY=0.63;entryDx=0;entryDy=0;entryPerimeter=0;" parent="1" source="bpZyM-wdqb_Q3J08ysqU-14" target="bpZyM-wdqb_Q3J08ysqU-19" edge="1">
          <mxGeometry relative="1" as="geometry" />
        </mxCell>
        <mxCell id="bpZyM-wdqb_Q3J08ysqU-29" value="" style="group" parent="1" vertex="1" connectable="0">
          <mxGeometry x="-430" y="420" width="110" height="78" as="geometry" />
        </mxCell>
        <mxCell id="bpZyM-wdqb_Q3J08ysqU-30" value="" style="aspect=fixed;sketch=0;html=1;dashed=0;whitespace=wrap;fillColor=#2875E2;strokeColor=#ffffff;points=[[0.005,0.63,0],[0.1,0.2,0],[0.9,0.2,0],[0.5,0,0],[0.995,0.63,0],[0.72,0.99,0],[0.5,1,0],[0.28,0.99,0]];shape=mxgraph.kubernetes.icon2;prIcon=svc" parent="bpZyM-wdqb_Q3J08ysqU-29" vertex="1">
          <mxGeometry x="30" width="50" height="48" as="geometry" />
        </mxCell>
        <mxCell id="bpZyM-wdqb_Q3J08ysqU-31" value="svc/log-receiver" style="text;html=1;align=center;verticalAlign=middle;resizable=0;points=[];autosize=1;strokeColor=none;fillColor=none;" parent="bpZyM-wdqb_Q3J08ysqU-29" vertex="1">
          <mxGeometry y="48" width="110" height="30" as="geometry" />
        </mxCell>
        <mxCell id="bpZyM-wdqb_Q3J08ysqU-32" style="edgeStyle=orthogonalEdgeStyle;rounded=0;orthogonalLoop=1;jettySize=auto;html=1;exitX=0.005;exitY=0.63;exitDx=0;exitDy=0;exitPerimeter=0;entryX=0.995;entryY=0.63;entryDx=0;entryDy=0;entryPerimeter=0;" parent="1" source="bpZyM-wdqb_Q3J08ysqU-30" target="bpZyM-wdqb_Q3J08ysqU-25" edge="1">
          <mxGeometry relative="1" as="geometry" />
        </mxCell>
        <mxCell id="bpZyM-wdqb_Q3J08ysqU-33" value="namespace:&amp;nbsp;knative-eventing" style="fillColor=none;strokeColor=#5A6C86;dashed=1;verticalAlign=top;fontStyle=0;fontColor=#5A6C86;whiteSpace=wrap;html=1;" parent="1" vertex="1">
          <mxGeometry x="-180" y="360" width="440" height="280" as="geometry" />
        </mxCell>
        <mxCell id="bpZyM-wdqb_Q3J08ysqU-34" value="namespace: kafka" style="fillColor=none;strokeColor=#5A6C86;dashed=1;verticalAlign=top;fontStyle=0;fontColor=#5A6C86;whiteSpace=wrap;html=1;" parent="1" vertex="1">
          <mxGeometry x="-180" y="120" width="440" height="200" as="geometry" />
        </mxCell>
        <mxCell id="bpZyM-wdqb_Q3J08ysqU-37" value="" style="group" parent="1" vertex="1" connectable="0">
          <mxGeometry x="-180" y="181.5" width="150" height="77" as="geometry" />
        </mxCell>
        <mxCell id="bpZyM-wdqb_Q3J08ysqU-35" value="" style="aspect=fixed;sketch=0;html=1;dashed=0;whitespace=wrap;fillColor=#2875E2;strokeColor=#ffffff;points=[[0.005,0.63,0],[0.1,0.2,0],[0.9,0.2,0],[0.5,0,0],[0.995,0.63,0],[0.72,0.99,0],[0.5,1,0],[0.28,0.99,0]];shape=mxgraph.kubernetes.icon2;prIcon=pod" parent="bpZyM-wdqb_Q3J08ysqU-37" vertex="1">
          <mxGeometry x="50" width="50" height="48" as="geometry" />
        </mxCell>
        <mxCell id="bpZyM-wdqb_Q3J08ysqU-36" value="pod/strimzi-operator" style="text;html=1;align=center;verticalAlign=middle;resizable=0;points=[];autosize=1;strokeColor=none;fillColor=none;" parent="bpZyM-wdqb_Q3J08ysqU-37" vertex="1">
          <mxGeometry x="10" y="47" width="130" height="30" as="geometry" />
        </mxCell>
        <mxCell id="bpZyM-wdqb_Q3J08ysqU-38" value="" style="group" parent="1" vertex="1" connectable="0">
          <mxGeometry x="-40" y="181.5" width="150" height="77" as="geometry" />
        </mxCell>
        <mxCell id="bpZyM-wdqb_Q3J08ysqU-39" value="" style="aspect=fixed;sketch=0;html=1;dashed=0;whitespace=wrap;fillColor=#2875E2;strokeColor=#ffffff;points=[[0.005,0.63,0],[0.1,0.2,0],[0.9,0.2,0],[0.5,0,0],[0.995,0.63,0],[0.72,0.99,0],[0.5,1,0],[0.28,0.99,0]];shape=mxgraph.kubernetes.icon2;prIcon=pod" parent="bpZyM-wdqb_Q3J08ysqU-38" vertex="1">
          <mxGeometry x="50" width="50" height="48" as="geometry" />
        </mxCell>
        <mxCell id="bpZyM-wdqb_Q3J08ysqU-40" value="pod/kafka-broker-node" style="text;html=1;align=center;verticalAlign=middle;resizable=0;points=[];autosize=1;strokeColor=none;fillColor=none;" parent="bpZyM-wdqb_Q3J08ysqU-38" vertex="1">
          <mxGeometry x="5" y="47" width="140" height="30" as="geometry" />
        </mxCell>
        <mxCell id="bpZyM-wdqb_Q3J08ysqU-41" value="" style="group" parent="1" vertex="1" connectable="0">
          <mxGeometry x="110" y="181.5" width="155" height="77" as="geometry" />
        </mxCell>
        <mxCell id="bpZyM-wdqb_Q3J08ysqU-42" value="" style="aspect=fixed;sketch=0;html=1;dashed=0;whitespace=wrap;fillColor=#2875E2;strokeColor=#ffffff;points=[[0.005,0.63,0],[0.1,0.2,0],[0.9,0.2,0],[0.5,0,0],[0.995,0.63,0],[0.72,0.99,0],[0.5,1,0],[0.28,0.99,0]];shape=mxgraph.kubernetes.icon2;prIcon=pod" parent="bpZyM-wdqb_Q3J08ysqU-41" vertex="1">
          <mxGeometry x="50" width="50" height="48" as="geometry" />
        </mxCell>
        <mxCell id="bpZyM-wdqb_Q3J08ysqU-43" value="pod/kafka-entity-operator" style="text;html=1;align=center;verticalAlign=middle;resizable=0;points=[];autosize=1;strokeColor=none;fillColor=none;" parent="bpZyM-wdqb_Q3J08ysqU-41" vertex="1">
          <mxGeometry x="-5" y="47" width="160" height="30" as="geometry" />
        </mxCell>
        <mxCell id="bpZyM-wdqb_Q3J08ysqU-44" style="edgeStyle=orthogonalEdgeStyle;rounded=0;orthogonalLoop=1;jettySize=auto;html=1;exitX=0.995;exitY=0.63;exitDx=0;exitDy=0;exitPerimeter=0;entryX=0.005;entryY=0.63;entryDx=0;entryDy=0;entryPerimeter=0;dashed=1;dashPattern=8 8;" parent="1" source="bpZyM-wdqb_Q3J08ysqU-35" target="bpZyM-wdqb_Q3J08ysqU-39" edge="1">
          <mxGeometry relative="1" as="geometry" />
        </mxCell>
        <mxCell id="bpZyM-wdqb_Q3J08ysqU-45" style="edgeStyle=orthogonalEdgeStyle;rounded=0;orthogonalLoop=1;jettySize=auto;html=1;exitX=0.005;exitY=0.63;exitDx=0;exitDy=0;exitPerimeter=0;entryX=0.995;entryY=0.63;entryDx=0;entryDy=0;entryPerimeter=0;dashed=1;dashPattern=8 8;" parent="1" source="bpZyM-wdqb_Q3J08ysqU-42" target="bpZyM-wdqb_Q3J08ysqU-39" edge="1">
          <mxGeometry relative="1" as="geometry" />
        </mxCell>
        <mxCell id="bpZyM-wdqb_Q3J08ysqU-56" value="" style="group" parent="1" vertex="1" connectable="0">
          <mxGeometry x="-180" y="400" width="160" height="87" as="geometry" />
        </mxCell>
        <mxCell id="bpZyM-wdqb_Q3J08ysqU-57" value="" style="aspect=fixed;sketch=0;html=1;dashed=0;whitespace=wrap;fillColor=#2875E2;strokeColor=#ffffff;points=[[0.005,0.63,0],[0.1,0.2,0],[0.9,0.2,0],[0.5,0,0],[0.995,0.63,0],[0.72,0.99,0],[0.5,1,0],[0.28,0.99,0]];shape=mxgraph.kubernetes.icon2;prIcon=pod" parent="bpZyM-wdqb_Q3J08ysqU-56" vertex="1">
          <mxGeometry x="58.38" width="52.08" height="50" as="geometry" />
        </mxCell>
        <mxCell id="bpZyM-wdqb_Q3J08ysqU-58" value="pod/&lt;span style=&quot;font-variant-ligatures: no-common-ligatures; font-family: &amp;quot;FiraCode Nerd Font&amp;quot;; text-align: start; text-wrap: wrap; background-color: initial;&quot;&gt;kafka-broker-dispatcher&lt;/span&gt;" style="text;html=1;align=center;verticalAlign=middle;resizable=0;points=[];autosize=1;strokeColor=none;fillColor=none;" parent="bpZyM-wdqb_Q3J08ysqU-56" vertex="1">
          <mxGeometry x="-30.270270270270274" y="53.103896103896105" width="220" height="30" as="geometry" />
        </mxCell>
        <mxCell id="bpZyM-wdqb_Q3J08ysqU-59" value="" style="group" parent="1" vertex="1" connectable="0">
          <mxGeometry x="-40" y="400" width="160" height="87" as="geometry" />
        </mxCell>
        <mxCell id="bpZyM-wdqb_Q3J08ysqU-60" value="" style="aspect=fixed;sketch=0;html=1;dashed=0;whitespace=wrap;fillColor=#2875E2;strokeColor=#ffffff;points=[[0.005,0.63,0],[0.1,0.2,0],[0.9,0.2,0],[0.5,0,0],[0.995,0.63,0],[0.72,0.99,0],[0.5,1,0],[0.28,0.99,0]];shape=mxgraph.kubernetes.icon2;prIcon=pod" parent="bpZyM-wdqb_Q3J08ysqU-59" vertex="1">
          <mxGeometry x="50" width="49.25" height="47.28" as="geometry" />
        </mxCell>
        <mxCell id="bpZyM-wdqb_Q3J08ysqU-61" value="pod/&lt;span style=&quot;font-variant-ligatures: no-common-ligatures; font-family: &amp;quot;FiraCode Nerd Font&amp;quot;; text-align: start; text-wrap: wrap; background-color: initial;&quot;&gt;kafka-broker-receiver&lt;/span&gt;" style="text;html=1;align=center;verticalAlign=middle;resizable=0;points=[];autosize=1;strokeColor=none;fillColor=none;" parent="bpZyM-wdqb_Q3J08ysqU-59" vertex="1">
          <mxGeometry x="-18.045112781954888" y="53.103896103896105" width="200" height="30" as="geometry" />
        </mxCell>
        <mxCell id="bpZyM-wdqb_Q3J08ysqU-46" value="" style="group" parent="1" vertex="1" connectable="0">
          <mxGeometry x="100" y="518.83" width="160" height="80" as="geometry" />
        </mxCell>
        <mxCell id="bpZyM-wdqb_Q3J08ysqU-47" value="" style="aspect=fixed;sketch=0;html=1;dashed=0;whitespace=wrap;fillColor=#2875E2;strokeColor=#ffffff;points=[[0.005,0.63,0],[0.1,0.2,0],[0.9,0.2,0],[0.5,0,0],[0.995,0.63,0],[0.72,0.99,0],[0.5,1,0],[0.28,0.99,0]];shape=mxgraph.kubernetes.icon2;prIcon=pod" parent="bpZyM-wdqb_Q3J08ysqU-46" vertex="1">
          <mxGeometry x="53.333333333333336" width="51.94805194805194" height="49.870129870129865" as="geometry" />
        </mxCell>
        <mxCell id="bpZyM-wdqb_Q3J08ysqU-48" value="pod/eventing-controller" style="text;html=1;align=center;verticalAlign=middle;resizable=0;points=[];autosize=1;strokeColor=none;fillColor=none;" parent="bpZyM-wdqb_Q3J08ysqU-46" vertex="1">
          <mxGeometry y="48.831168831168824" width="150" height="30" as="geometry" />
        </mxCell>
        <mxCell id="bpZyM-wdqb_Q3J08ysqU-62" style="edgeStyle=orthogonalEdgeStyle;rounded=0;orthogonalLoop=1;jettySize=auto;html=1;exitX=0.005;exitY=0.63;exitDx=0;exitDy=0;exitPerimeter=0;entryX=0.995;entryY=0.63;entryDx=0;entryDy=0;entryPerimeter=0;dashed=1;" parent="1" source="bpZyM-wdqb_Q3J08ysqU-47" target="bpZyM-wdqb_Q3J08ysqU-50" edge="1">
          <mxGeometry relative="1" as="geometry" />
        </mxCell>
        <mxCell id="bpZyM-wdqb_Q3J08ysqU-66" value="" style="group" parent="1" vertex="1" connectable="0">
          <mxGeometry x="-45" y="520" width="170" height="78.83116883116884" as="geometry" />
        </mxCell>
        <mxCell id="bpZyM-wdqb_Q3J08ysqU-50" value="" style="aspect=fixed;sketch=0;html=1;dashed=0;whitespace=wrap;fillColor=#2875E2;strokeColor=#ffffff;points=[[0.005,0.63,0],[0.1,0.2,0],[0.9,0.2,0],[0.5,0,0],[0.995,0.63,0],[0.72,0.99,0],[0.5,1,0],[0.28,0.99,0]];shape=mxgraph.kubernetes.icon2;prIcon=pod" parent="bpZyM-wdqb_Q3J08ysqU-66" vertex="1">
          <mxGeometry x="60" width="50" height="48" as="geometry" />
        </mxCell>
        <mxCell id="bpZyM-wdqb_Q3J08ysqU-51" value="pod/&lt;span style=&quot;font-variant-ligatures: no-common-ligatures; font-family: &amp;quot;FiraCode Nerd Font&amp;quot;; text-align: start; text-wrap: wrap; background-color: initial;&quot;&gt;eventing-webhook&lt;/span&gt;" style="text;html=1;align=center;verticalAlign=middle;resizable=0;points=[];autosize=1;strokeColor=none;fillColor=none;" parent="bpZyM-wdqb_Q3J08ysqU-66" vertex="1">
          <mxGeometry y="48.83116883116884" width="170" height="30" as="geometry" />
        </mxCell>
        <mxCell id="bpZyM-wdqb_Q3J08ysqU-67" value="" style="group" parent="1" vertex="1" connectable="0">
          <mxGeometry x="-180" y="520" width="170" height="78.83116883116884" as="geometry" />
        </mxCell>
        <mxCell id="bpZyM-wdqb_Q3J08ysqU-68" value="" style="aspect=fixed;sketch=0;html=1;dashed=0;whitespace=wrap;fillColor=#2875E2;strokeColor=#ffffff;points=[[0.005,0.63,0],[0.1,0.2,0],[0.9,0.2,0],[0.5,0,0],[0.995,0.63,0],[0.72,0.99,0],[0.5,1,0],[0.28,0.99,0]];shape=mxgraph.kubernetes.icon2;prIcon=pod" parent="bpZyM-wdqb_Q3J08ysqU-67" vertex="1">
          <mxGeometry x="60" width="50" height="48" as="geometry" />
        </mxCell>
        <mxCell id="bpZyM-wdqb_Q3J08ysqU-69" value="pod/&lt;span style=&quot;font-variant-ligatures: no-common-ligatures; font-family: &amp;quot;FiraCode Nerd Font&amp;quot;; text-align: start; text-wrap: wrap; background-color: initial;&quot;&gt;kafka-controller&lt;/span&gt;" style="text;html=1;align=center;verticalAlign=middle;resizable=0;points=[];autosize=1;strokeColor=none;fillColor=none;" parent="bpZyM-wdqb_Q3J08ysqU-67" vertex="1">
          <mxGeometry y="48.83116883116884" width="170" height="30" as="geometry" />
        </mxCell>
        <mxCell id="bpZyM-wdqb_Q3J08ysqU-73" style="edgeStyle=orthogonalEdgeStyle;rounded=0;orthogonalLoop=1;jettySize=auto;html=1;exitX=0.995;exitY=0.63;exitDx=0;exitDy=0;exitPerimeter=0;entryX=0.005;entryY=0.63;entryDx=0;entryDy=0;entryPerimeter=0;dashed=1;" parent="1" source="bpZyM-wdqb_Q3J08ysqU-68" target="bpZyM-wdqb_Q3J08ysqU-60" edge="1">
          <mxGeometry relative="1" as="geometry" />
        </mxCell>
        <mxCell id="bpZyM-wdqb_Q3J08ysqU-74" style="edgeStyle=orthogonalEdgeStyle;rounded=0;orthogonalLoop=1;jettySize=auto;html=1;exitX=0.005;exitY=0.63;exitDx=0;exitDy=0;exitPerimeter=0;entryX=0.005;entryY=0.63;entryDx=0;entryDy=0;entryPerimeter=0;dashed=1;" parent="1" source="bpZyM-wdqb_Q3J08ysqU-68" target="bpZyM-wdqb_Q3J08ysqU-57" edge="1">
          <mxGeometry relative="1" as="geometry">
            <Array as="points">
              <mxPoint x="-160" y="550" />
              <mxPoint x="-160" y="432" />
            </Array>
          </mxGeometry>
        </mxCell>
        <mxCell id="bpZyM-wdqb_Q3J08ysqU-75" value="" style="group" parent="1" vertex="1" connectable="0">
          <mxGeometry x="100" y="400" width="186.95488721804512" height="87" as="geometry" />
        </mxCell>
        <mxCell id="bpZyM-wdqb_Q3J08ysqU-76" value="" style="aspect=fixed;sketch=0;html=1;dashed=0;whitespace=wrap;fillColor=#2875E2;strokeColor=#ffffff;points=[[0.005,0.63,0],[0.1,0.2,0],[0.9,0.2,0],[0.5,0,0],[0.995,0.63,0],[0.72,0.99,0],[0.5,1,0],[0.28,0.99,0]];shape=mxgraph.kubernetes.icon2;prIcon=pod" parent="bpZyM-wdqb_Q3J08ysqU-75" vertex="1">
          <mxGeometry x="50" width="49.25" height="47.28" as="geometry" />
        </mxCell>
        <mxCell id="bpZyM-wdqb_Q3J08ysqU-77" value="pod/&lt;span style=&quot;font-variant-ligatures: no-common-ligatures; font-family: &amp;quot;FiraCode Nerd Font&amp;quot;; text-align: start; text-wrap: wrap; background-color: initial;&quot;&gt;kafka-webhook-eventing&lt;/span&gt;" style="text;html=1;align=center;verticalAlign=middle;resizable=0;points=[];autosize=1;strokeColor=none;fillColor=none;" parent="bpZyM-wdqb_Q3J08ysqU-75" vertex="1">
          <mxGeometry x="-23.045112781954888" y="53.103896103896105" width="210" height="30" as="geometry" />
        </mxCell>
        <mxCell id="bpZyM-wdqb_Q3J08ysqU-78" style="edgeStyle=orthogonalEdgeStyle;rounded=0;orthogonalLoop=1;jettySize=auto;html=1;exitX=0.005;exitY=0.63;exitDx=0;exitDy=0;exitPerimeter=0;entryX=0.5;entryY=0;entryDx=0;entryDy=0;entryPerimeter=0;dashed=1;startArrow=classic;startFill=1;" parent="1" source="bpZyM-wdqb_Q3J08ysqU-76" target="bpZyM-wdqb_Q3J08ysqU-50" edge="1">
          <mxGeometry relative="1" as="geometry">
            <Array as="points">
              <mxPoint x="120" y="430" />
              <mxPoint x="120" y="500" />
              <mxPoint x="40" y="500" />
            </Array>
          </mxGeometry>
        </mxCell>
        <mxCell id="bpZyM-wdqb_Q3J08ysqU-80" style="edgeStyle=orthogonalEdgeStyle;rounded=0;orthogonalLoop=1;jettySize=auto;html=1;exitX=0.5;exitY=0;exitDx=0;exitDy=0;exitPerimeter=0;entryX=0.503;entryY=-0.07;entryDx=0;entryDy=0;entryPerimeter=0;dashed=1;startArrow=classic;startFill=1;endArrow=none;endFill=0;" parent="1" source="bpZyM-wdqb_Q3J08ysqU-60" target="bpZyM-wdqb_Q3J08ysqU-40" edge="1">
          <mxGeometry relative="1" as="geometry" />
        </mxCell>
        <mxCell id="bpZyM-wdqb_Q3J08ysqU-82" style="edgeStyle=orthogonalEdgeStyle;rounded=0;orthogonalLoop=1;jettySize=auto;html=1;exitX=0.5;exitY=0;exitDx=0;exitDy=0;exitPerimeter=0;entryX=0.429;entryY=0.081;entryDx=0;entryDy=0;entryPerimeter=0;dashed=1;" parent="1" source="bpZyM-wdqb_Q3J08ysqU-57" target="bpZyM-wdqb_Q3J08ysqU-40" edge="1">
          <mxGeometry relative="1" as="geometry" />
        </mxCell>
        <mxCell id="bpZyM-wdqb_Q3J08ysqU-83" style="edgeStyle=orthogonalEdgeStyle;rounded=0;orthogonalLoop=1;jettySize=auto;html=1;entryX=0.995;entryY=0.63;entryDx=0;entryDy=0;entryPerimeter=0;" parent="1" source="bpZyM-wdqb_Q3J08ysqU-33" target="bpZyM-wdqb_Q3J08ysqU-30" edge="1">
          <mxGeometry relative="1" as="geometry" />
        </mxCell>
      </root>
    </mxGraphModel>
  </diagram>
</mxfile>
